<svg width="12" height="13" viewBox="0 0 12 13" fill="none" xmlns="http://www.w3.org/2000/svg">
<path fill-rule="evenodd" clip-rule="evenodd" d="M2.84211 5.68431H2.21053V6.31589H2.84211V5.68431ZM2.21053 5.05273C1.86171 5.05273 1.57895 5.33549 1.57895 5.68431V6.31589C1.57895 6.66471 1.86171 6.94747 2.21053 6.94747H2.84211C3.19093 6.94747 3.47369 6.66471 3.47369 6.31589V5.68431C3.47369 5.33549 3.19093 5.05273 2.84211 5.05273H2.21053Z" fill="white"/>
<path fill-rule="evenodd" clip-rule="evenodd" d="M5.36841 5.68431H4.73683V6.31589H5.36841V5.68431ZM4.73683 5.05273C4.38801 5.05273 4.10526 5.33549 4.10526 5.68431V6.31589C4.10526 6.66471 4.38801 6.94747 4.73683 6.94747H5.36841C5.71723 6.94747 5.99999 6.66471 5.99999 6.31589V5.68431C5.99999 5.33549 5.71723 5.05273 5.36841 5.05273H4.73683Z" fill="white"/>
<path fill-rule="evenodd" clip-rule="evenodd" d="M7.89473 5.68431H7.26316V6.31589H7.89473V5.68431ZM7.26316 5.05273C6.91433 5.05273 6.63158 5.33549 6.63158 5.68431V6.31589C6.63158 6.66471 6.91433 6.94747 7.26316 6.94747H7.89473C8.24356 6.94747 8.52631 6.66471 8.52631 6.31589V5.68431C8.52631 5.33549 8.24356 5.05273 7.89473 5.05273H7.26316Z" fill="white"/>
<path fill-rule="evenodd" clip-rule="evenodd" d="M2.84211 8.21068H2.21053V8.84226H2.84211V8.21068ZM2.21053 7.5791C1.86171 7.5791 1.57895 7.86186 1.57895 8.21068V8.84226C1.57895 9.19108 1.86171 9.47384 2.21053 9.47384H2.84211C3.19093 9.47384 3.47369 9.19108 3.47369 8.84226V8.21068C3.47369 7.86186 3.19093 7.5791 2.84211 7.5791H2.21053Z" fill="white"/>
<path fill-rule="evenodd" clip-rule="evenodd" d="M5.36841 8.21068H4.73683V8.84226H5.36841V8.21068ZM4.73683 7.5791C4.38801 7.5791 4.10526 7.86186 4.10526 8.21068V8.84226C4.10526 9.19108 4.38801 9.47384 4.73683 9.47384H5.36841C5.71723 9.47384 5.99999 9.19108 5.99999 8.84226V8.21068C5.99999 7.86186 5.71723 7.5791 5.36841 7.5791H4.73683Z" fill="white"/>
<path fill-rule="evenodd" clip-rule="evenodd" d="M1.26316 1.57909H8.84211C9.19093 1.57909 9.47368 1.86185 9.47368 2.21067V7.2633C9.69177 7.2633 9.90341 7.29093 10.1053 7.34288V2.21067C10.1053 1.51304 9.53972 0.94751 8.84211 0.94751H1.26316C0.565535 0.94751 0 1.51304 0 2.21067V9.78962C0 10.4872 0.565535 11.0528 1.26316 11.0528H7.28536C7.17227 10.8573 7.08464 10.6452 7.02695 10.4212H1.26316C0.914346 10.4212 0.631579 10.1384 0.631579 9.78962V2.21067C0.631579 1.86185 0.914346 1.57909 1.26316 1.57909Z" fill="white"/>
<path fill-rule="evenodd" clip-rule="evenodd" d="M9.78946 4.42113H0.315781V3.78955H9.78946V4.42113Z" fill="white"/>
<path fill-rule="evenodd" clip-rule="evenodd" d="M9.47369 11.6845C10.5201 11.6845 11.3684 10.8362 11.3684 9.78974C11.3684 8.74331 10.5201 7.89501 9.47369 7.89501C8.42726 7.89501 7.57895 8.74331 7.57895 9.78974C7.57895 10.8362 8.42726 11.6845 9.47369 11.6845ZM9.47369 12.3161C10.8689 12.3161 12 11.185 12 9.78974C12 8.39449 10.8689 7.26343 9.47369 7.26343C8.07844 7.26343 6.94737 8.39449 6.94737 9.78974C6.94737 11.185 8.07844 12.3161 9.47369 12.3161Z" fill="white"/>
<path fill-rule="evenodd" clip-rule="evenodd" d="M9.47369 8.26709C9.6481 8.26709 9.78948 8.40847 9.78948 8.58288V9.94017L10.5636 10.4776C10.7069 10.577 10.7424 10.7738 10.643 10.917C10.5435 11.0603 10.3468 11.0958 10.2035 10.9964L9.1579 10.2706V8.58288C9.1579 8.40847 9.29928 8.26709 9.47369 8.26709Z" fill="white"/>
</svg>
